<?xml version="1.0" encoding="utf-8"?>
<!-- Generator: Adobe Illustrator 24.2.1, SVG Export Plug-In . SVG Version: 6.00 Build 0)  -->
<svg version="1.1" xmlns="http://www.w3.org/2000/svg" xmlns:xlink="http://www.w3.org/1999/xlink" x="0px" y="0px"
	 viewBox="0 0 512 512" style="enable-background:new 0 0 512 512;" xml:space="preserve">
<style type="text/css">
	.st0{fill:#4B5320;}
	.st1{fill:#FFFFFF;}
	.st2{fill:#CB6622;}
	.st3{fill:#ABB155;}
	.st4{fill:#F9C4A2;}
</style>
<g id="ico-verde">
	<circle class="st0" cx="863.04" cy="256" r="256"/>
	<path class="st1" d="M996.1,358.03c0-0.21-0.03-0.43,0-0.63c1.5-9.41-3.97-16.37-8.39-23.66c-1.99-3.28-5.66-5.22-8.84-5.9
		c-5.45-1.17-9.09-4.85-13.27-7.63c-8.52-5.68-15.28-13.5-22.21-20.94c-4.03-4.33-7.08-9.6-10.37-14.59
		c-2.45-3.72-6.06-6.26-8.94-9.54c-1-1.14-1.21,0.37-1.77,0.63c-4.05,1.91-8.1,3.81-12.11,5.8c-7.57,3.75-15.53,6.35-23.77,8.13
		c-2.15,2.57-5.44,0.43-8.02,2.02c-2.34,1.43-5.36-0.01-7.96,0.56c-7.35,1.61-15.08,1.41-22.11,4.5c-0.57,0.25-1.09,0.58-1.69,0.49
		c-5.82-0.95-11.37,1.97-17.14,1.23c-2.66-0.34-2.8,0.97-2.58,2.9c0.72,6.21-2.21,12.18-1.26,18.41c-1.99,2.99-1.47,6.4-1.13,9.56
		c0.25,2.3-1.07,3.9-1.56,5.76c-1.79,6.78-3.99,13.38-3.68,20.57c0.2,4.63-1.95,8.93-3.91,12.85c-2.99,5.97-5.42,12.07-7.41,18.41
		c-0.86,2.74-2.58,5.16-5.65,4.93c-6.66-0.5-13.02,1.83-19.69,1.52c-3.63-0.17-6.08-2.91-9.58-3.04c-0.88-0.03-0.71-2.18-0.29-2.77
		c1-1.39,2.36-2.9,1.65-4.4c-1.13-2.4-3.74-1.29-5.68-1.23c-2.74,0.08-5.2-0.42-7.42-1.96c-1.49-1.03-1.96-2.93-0.76-4.24
		c1.53-1.67,2.29-3.67,3.3-5.6c1.63-3.11,5.1-3.57,7.99-4.62c3-1.09,6.13-1.68,8.32-4.37c0.83-1.02,1.4-1.85,1.35-3.26
		c-0.13-3.78,0.39-7.63-0.13-11.35c-1.27-9.04-1.62-18.4-5.11-26.89c-3.61-8.8-7.09-17.7-11.7-26.08c-0.92-1.67-1.72-3.43-2.23-5.41
		c-0.61-2.36-2.23-4.56-4.6-6.07c-7.57-4.84-12.01-12.25-15.26-20.27c-1.14-2.81-1.77-6.18-2.98-8.85
		c-1.29-2.87,0.04-6.01-2.07-8.68c-0.92-1.16,0.6-4.29-0.33-5.41c-1.33-1.6-1.31-3.48-1.75-5c-1.4-4.88-4.11-8.91-6.91-12.94
		c-2.76-3.98-5.72-7.8-8.78-11.56c-2.06-2.54-3.97-5.21-6.4-7.37c-3.03-2.69-6.17-5.3-10.77-4.48c-2.14,0.38-4.13-0.96-6.58-0.15
		c-2.46,0.82-5.41,0.18-8.14,0.18c-2.52,0-5.05-0.02-7.57,0c-3.71,0.03-6.78-1.38-10.09-3.12c-4.11-2.16-7.3-5.08-10.44-8.25
		c-2.85-2.87-2.69-4.67,0.18-7.81c3.6-3.93,8.51-5.84,12.88-8.56c3.49-2.17,7.68-3.09,10.72-6.13c1.39-1.39,2.52-2.74,2.07-4.84
		c-0.6-2.81,1.06-4.51,2.75-6.46c4.21-4.85,10.03-7.55,14.87-11.54c0.94-0.77,1.36-1.23,1.3-2.23c-0.07-0.99,0-1.9-0.51-2.94
		c-2.68-5.45-2.94-11.73-5.72-17.19c-0.58-1.13,0.34-1.84,1.7-1.77c0.86,0.04,1.62,0.05,2.2,0.82c1.98,2.58,4.79,4.33,6.4,7.43
		c1.29,2.49,3.96,4.29,6.1,6.31c1.17,1.1,0.87-0.25,1.25-0.77c2.04-2.8,1.9-6.31,0.97-8.88c-0.98-2.7-0.83-5.19-0.96-7.78
		c-0.06-1.13-0.68-2.58,0.7-3.39c1.09-0.64,4.45,0.16,5.03,1.41c1.7,3.69,4.53,6.55,6.82,9.8c3.5,4.95,6.74,10.2,12.36,13.03
		c4.45,2.24,7.18,6.46,11.35,9.09c5.75,3.61,11.04,7.98,16.46,12.11c4.47,3.41,9.14,6.52,13.61,9.94c6.21,4.75,11.9,10,17.71,15.18
		c3.45,3.08,7.43,5.88,11.88,7.71c1.48,0.61,2.88,1.08,4.52,1.35c6.66,1.12,13.4,1.57,20.02,3.31c3.15,0.83,6.59,1.7,10.09,1.74
		c3.39,0.03,6.71,1.15,10.2,1.3c3.39,0.15,6.28-1.62,9.58-1.45c3.15,0.16,6.58,0.83,9.4-0.14c4.72-1.63,9.39-1.04,14.05-0.96
		c2.95,0.05,5.34-1.73,8.32-1.49c2.76,0.23,5.7,0.78,8.36-1.08c0.7-0.49,2.05-0.07,3.1-0.07c5.26,0,10.54,0.32,15.77-0.09
		c5.84-0.45,11.48,0.77,17.13,1.5c5.22,0.67,10.39,1.97,15.53,3.49c10.98,3.25,17.51,6.44,26.78,13.17
		c5.32,3.86,10.2,8.09,14.99,12.55c8.38,7.81,14.1,17.33,19.18,27.42c4.91,9.76,10.53,19.04,19.11,26.19
		c2.09,1.74,4.44,2.37,6.91,3.18c4.51,1.46,8.72,3.9,13.7,3.48c6.49,2.78,13.96,2.1,20.2,6.13c4.3,2.78,7.62,5.71,8.27,11.08
		c0.23,1.89,1.01,3.79,1.91,5.49c0.65,1.23,0.95,2.54,0.19,3.38c-0.8,0.87-2.21,0.73-3.35-0.09c-0.46-0.34-1.06-0.47-1.58-0.74
		c-2.08-1.09-3.95-2.38-6.52-2.65c-2.46-0.26-4.37,1.03-6.38,1.59c-9.51,2.64-12.07,2.32-21.86,1.3
		c-7.46-0.77-14.18-3.45-21.26-5.17c-1.26-0.3-2.12-1.06-3.19-1.49c-2.32-0.93-4.6-1.85-7.09-2.15c-0.54,2.3-1.48,4.59-1.55,6.9
		c-0.15,4.82-0.77,9.71,2.33,14.17c1.2,1.73,2.53,3.26,4.02,4.59c4.58,4.07,6.33,9.18,6.2,15.13c-0.04,1.89,0.18,3.81-0.04,5.68
		c-0.8,6.65,1.72,13.06,1.3,19.68c1.67,2.58,1.19,5.49,1.27,8.31c0.08,3.05,0.08,6.05-1.93,8.68c-1.23,1.61-0.49,3.6-0.58,5.42
		c-0.17,3.53-0.26,3.21-3.42,4.7c-2.38,1.13-4.69,1.13-7.1,1.15c-3.79,0.03-7.58,0.12-11.36-0.03c-3.15-0.12-4.49-1.61-4.65-4.63
		c-0.15-2.87-0.15-2.89-3.14-2.91c-4-0.02-7.99,0.04-11.99-0.02c-2.88-0.05-3.96-1.39-3.83-4.23c0.13-2.65,1.87-3.98,3.83-5.27
		c1.52-1,3.38-0.65,5.01-1.71c1.54-1,2.12-1.91,2.66-3.63C996.27,366.57,996.06,362.31,996.1,358.03z"/>
</g>
<g id="ico-naranja">
	<circle class="st2" cx="863.04" cy="-296.66" r="256"/>
	<path class="st1" d="M996.1-194.63c0-0.21-0.03-0.43,0-0.63c1.5-9.41-3.97-16.37-8.39-23.66c-1.99-3.28-5.66-5.22-8.84-5.9
		c-5.45-1.17-9.09-4.85-13.27-7.63c-8.52-5.68-15.28-13.5-22.21-20.94c-4.03-4.33-7.08-9.6-10.37-14.59
		c-2.45-3.72-6.06-6.26-8.94-9.54c-1-1.14-1.21,0.37-1.77,0.63c-4.05,1.91-8.1,3.81-12.11,5.8c-7.57,3.75-15.53,6.35-23.77,8.13
		c-2.15,2.57-5.44,0.43-8.02,2.02c-2.34,1.43-5.36-0.01-7.96,0.56c-7.35,1.61-15.08,1.41-22.11,4.5c-0.57,0.25-1.09,0.58-1.69,0.49
		c-5.82-0.95-11.37,1.97-17.14,1.23c-2.66-0.34-2.8,0.97-2.58,2.9c0.72,6.21-2.21,12.18-1.26,18.41c-1.99,2.99-1.47,6.4-1.13,9.56
		c0.25,2.3-1.07,3.9-1.56,5.76c-1.79,6.78-3.99,13.38-3.68,20.57c0.2,4.63-1.95,8.93-3.91,12.85c-2.99,5.97-5.42,12.07-7.41,18.41
		c-0.86,2.74-2.58,5.16-5.65,4.93c-6.66-0.5-13.02,1.83-19.69,1.52c-3.63-0.17-6.08-2.91-9.58-3.04c-0.88-0.03-0.71-2.18-0.29-2.77
		c1-1.39,2.36-2.9,1.65-4.4c-1.13-2.4-3.74-1.29-5.68-1.23c-2.74,0.08-5.2-0.42-7.42-1.96c-1.49-1.03-1.96-2.93-0.76-4.24
		c1.53-1.67,2.29-3.67,3.3-5.6c1.63-3.11,5.1-3.57,7.99-4.62c3-1.09,6.13-1.68,8.32-4.37c0.83-1.02,1.4-1.85,1.35-3.26
		c-0.13-3.78,0.39-7.63-0.13-11.35c-1.27-9.04-1.62-18.4-5.11-26.89c-3.61-8.8-7.09-17.7-11.7-26.08c-0.92-1.67-1.72-3.43-2.23-5.41
		c-0.61-2.36-2.23-4.56-4.6-6.07c-7.57-4.84-12.01-12.25-15.26-20.27c-1.14-2.81-1.77-6.18-2.98-8.85
		c-1.29-2.87,0.04-6.01-2.07-8.68c-0.92-1.16,0.6-4.29-0.33-5.41c-1.33-1.6-1.31-3.48-1.75-5c-1.4-4.88-4.11-8.91-6.91-12.94
		c-2.76-3.98-5.72-7.8-8.78-11.56c-2.06-2.54-3.97-5.21-6.4-7.37c-3.03-2.69-6.17-5.3-10.77-4.48c-2.14,0.38-4.13-0.96-6.58-0.15
		c-2.46,0.82-5.41,0.18-8.14,0.18c-2.52,0-5.05-0.02-7.57,0c-3.71,0.03-6.78-1.38-10.09-3.12c-4.11-2.16-7.3-5.08-10.44-8.25
		c-2.85-2.87-2.69-4.67,0.18-7.81c3.6-3.93,8.51-5.84,12.88-8.56c3.49-2.17,7.68-3.09,10.72-6.13c1.39-1.39,2.52-2.74,2.07-4.84
		c-0.6-2.81,1.06-4.51,2.75-6.46c4.21-4.85,10.03-7.55,14.87-11.54c0.94-0.77,1.36-1.23,1.3-2.23c-0.07-0.99,0-1.9-0.51-2.94
		c-2.68-5.45-2.94-11.73-5.72-17.19c-0.58-1.13,0.34-1.84,1.7-1.77c0.86,0.04,1.62,0.05,2.2,0.82c1.98,2.58,4.79,4.33,6.4,7.43
		c1.29,2.49,3.96,4.29,6.1,6.31c1.17,1.1,0.87-0.25,1.25-0.77c2.04-2.8,1.9-6.31,0.97-8.88c-0.98-2.7-0.83-5.19-0.96-7.78
		c-0.06-1.13-0.68-2.58,0.7-3.39c1.09-0.64,4.45,0.16,5.03,1.41c1.7,3.69,4.53,6.55,6.82,9.8c3.5,4.95,6.74,10.2,12.36,13.03
		c4.45,2.24,7.18,6.46,11.35,9.09c5.75,3.61,11.04,7.98,16.46,12.11c4.47,3.41,9.14,6.52,13.61,9.94c6.21,4.75,11.9,10,17.71,15.18
		c3.45,3.08,7.43,5.88,11.88,7.71c1.48,0.61,2.88,1.08,4.52,1.35c6.66,1.12,13.4,1.57,20.02,3.31c3.15,0.83,6.59,1.7,10.09,1.74
		c3.39,0.03,6.71,1.15,10.2,1.3c3.39,0.15,6.28-1.62,9.58-1.45c3.15,0.16,6.58,0.83,9.4-0.14c4.72-1.63,9.39-1.04,14.05-0.96
		c2.95,0.05,5.34-1.73,8.32-1.49c2.76,0.23,5.7,0.78,8.36-1.08c0.7-0.49,2.05-0.07,3.1-0.07c5.26,0,10.54,0.32,15.77-0.09
		c5.84-0.45,11.48,0.77,17.13,1.5c5.22,0.67,10.39,1.97,15.53,3.49c10.98,3.25,17.51,6.44,26.78,13.17
		c5.32,3.86,10.2,8.09,14.99,12.55c8.38,7.81,14.1,17.33,19.18,27.42c4.91,9.76,10.53,19.04,19.11,26.19
		c2.09,1.74,4.44,2.37,6.91,3.18c4.51,1.46,8.72,3.9,13.7,3.48c6.49,2.78,13.96,2.1,20.2,6.13c4.3,2.78,7.62,5.71,8.27,11.08
		c0.23,1.89,1.01,3.79,1.91,5.49c0.65,1.23,0.95,2.54,0.19,3.38c-0.8,0.87-2.21,0.73-3.35-0.09c-0.46-0.34-1.06-0.47-1.58-0.74
		c-2.08-1.09-3.95-2.38-6.52-2.65c-2.46-0.26-4.37,1.03-6.38,1.59c-9.51,2.64-12.07,2.32-21.86,1.3
		c-7.46-0.77-14.18-3.45-21.26-5.17c-1.26-0.3-2.12-1.06-3.19-1.49c-2.32-0.93-4.6-1.85-7.09-2.15c-0.54,2.3-1.48,4.59-1.55,6.9
		c-0.15,4.82-0.77,9.71,2.33,14.17c1.2,1.73,2.53,3.26,4.02,4.59c4.58,4.07,6.33,9.18,6.2,15.13c-0.04,1.89,0.18,3.81-0.04,5.68
		c-0.8,6.65,1.72,13.06,1.3,19.68c1.67,2.58,1.19,5.49,1.27,8.31c0.08,3.05,0.08,6.05-1.93,8.68c-1.23,1.61-0.49,3.6-0.58,5.42
		c-0.17,3.53-0.26,3.21-3.42,4.7c-2.38,1.13-4.69,1.13-7.1,1.15c-3.79,0.03-7.58,0.12-11.36-0.03c-3.15-0.12-4.49-1.61-4.65-4.63
		c-0.15-2.87-0.15-2.89-3.14-2.91c-4-0.02-7.99,0.04-11.99-0.02c-2.88-0.05-3.96-1.39-3.83-4.23c0.13-2.65,1.87-3.98,3.83-5.27
		c1.52-1,3.38-0.65,5.01-1.71c1.54-1,2.12-1.91,2.66-3.63C996.27-186.09,996.06-190.35,996.1-194.63z"/>
</g>
<g id="logo-verde">
	<circle class="st0" cx="256" cy="256" r="256"/>
	<g>
		<path class="st1" d="M123.37,383.82c-5.67,0-10.41-1.03-14.21-3.1c-3.81-2.07-6.68-5.26-8.62-9.58
			c-1.94-4.32-3.02-9.93-3.25-16.81l17.13-2.64c0.07,3.98,0.43,7.19,1.06,9.64c0.63,2.45,1.53,4.21,2.69,5.28
			c1.16,1.07,2.56,1.61,4.2,1.61c2.09,0,3.45-0.73,4.09-2.18c0.63-1.45,0.95-2.98,0.95-4.59c0-3.82-0.9-7.06-2.69-9.7
			c-1.79-2.64-4.22-5.3-7.28-7.97l-7.83-7c-3.43-2.98-6.32-6.37-8.67-10.16c-2.35-3.79-3.53-8.47-3.53-14.06
			c0-7.88,2.28-13.9,6.83-18.07c4.55-4.17,10.75-6.25,18.58-6.25c4.85,0,8.75,0.84,11.7,2.52c2.95,1.68,5.19,3.88,6.72,6.6
			c1.53,2.72,2.57,5.58,3.13,8.61c0.56,3.02,0.88,5.91,0.95,8.66l-17.24,2.18c-0.08-2.75-0.24-5.14-0.5-7.17
			c-0.26-2.03-0.8-3.59-1.62-4.71c-0.82-1.11-2.09-1.66-3.81-1.66c-1.87,0-3.23,0.8-4.09,2.41c-0.86,1.61-1.29,3.21-1.29,4.82
			c0,3.44,0.8,6.25,2.41,8.43c1.6,2.18,3.71,4.46,6.32,6.83l7.5,6.77c3.95,3.44,7.29,7.34,10.02,11.7
			c2.72,4.36,4.09,9.75,4.09,16.18c0,4.36-0.97,8.32-2.91,11.88c-1.94,3.56-4.68,6.37-8.23,8.43
			C132.42,382.79,128.22,383.82,123.37,383.82z"/>
		<path class="st1" d="M160.75,382.45V289.5h20.04v92.95H160.75z"/>
		<path class="st1" d="M198.12,382.45V289.5h20.04v79.06h20.82v13.88H198.12z"/>
		<path class="st1" d="M257.87,382.45l-16.34-92.95h17.13l9.74,63.11l9.07-63.11h18.13l-16.57,92.95H257.87z"/>
		<path class="st1" d="M307.45,382.45V289.5h40.74v14h-20.71v23.06h15.78v14.23h-15.78v27.77h20.93v13.88H307.45z"/>
		<path class="st1" d="M361.04,382.45V289.5h22.41c5.49,0,10.25,0.69,14.27,2.07c4.02,1.38,7.15,3.84,9.4,7.4
			c2.24,3.56,3.37,8.59,3.37,15.09c0,3.83-0.27,7.23-0.8,10.21c-0.54,2.98-1.52,5.56-2.96,7.75c-1.44,2.18-3.5,4-6.18,5.45
			l11.15,44.98H393.1l-8.94-41.65h-5.13v41.65H361.04z M379.03,328.97h5.02c2.55,0,4.52-0.52,5.93-1.55
			c1.41-1.03,2.39-2.52,2.96-4.48c0.57-1.95,0.85-4.3,0.85-7.06c0-3.98-0.64-7.08-1.91-9.29c-1.27-2.22-3.62-3.33-7.03-3.33h-5.83
			V328.97z"/>
	</g>
	<g>
		<g>
			<path class="st3" d="M97.29,435.05v-46.16h10.61c3.66,0,6.5,0.5,8.54,1.51c2.04,1.01,3.47,2.58,4.3,4.73
				c0.83,2.15,1.24,4.93,1.24,8.35v16.75c0,3.46-0.41,6.28-1.24,8.46c-0.83,2.18-2.25,3.79-4.27,4.81
				c-2.02,1.03-4.84,1.54-8.46,1.54H97.29z M106.55,427.98H108c1.41,0,2.43-0.23,3.05-0.68c0.62-0.46,1.01-1.14,1.16-2.05
				c0.16-0.91,0.23-2.05,0.23-3.42v-20.12c0-1.37-0.1-2.47-0.28-3.3c-0.19-0.84-0.6-1.44-1.22-1.82c-0.62-0.38-1.62-0.57-3-0.57
				h-1.4V427.98z"/>
			<path class="st3" d="M140.92,435.73c-3.14,0-5.62-0.61-7.45-1.82c-1.83-1.21-3.14-2.96-3.93-5.24c-0.79-2.28-1.19-4.99-1.19-8.15
				v-17.15c0-3.19,0.4-5.91,1.19-8.15c0.79-2.24,2.1-3.96,3.93-5.16c1.83-1.2,4.31-1.8,7.45-1.8c3.17,0,5.68,0.6,7.53,1.8
				c1.85,1.2,3.17,2.92,3.96,5.16c0.79,2.24,1.19,4.96,1.19,8.15v17.15c0,3.15-0.4,5.87-1.19,8.15c-0.79,2.28-2.11,4.03-3.96,5.24
				C146.6,435.13,144.09,435.73,140.92,435.73z M140.92,428.5c0.97,0,1.67-0.26,2.12-0.8c0.45-0.53,0.74-1.22,0.88-2.05
				c0.14-0.84,0.21-1.69,0.21-2.56v-22.22c0-0.91-0.07-1.78-0.21-2.59c-0.14-0.82-0.43-1.49-0.88-2.02c-0.45-0.53-1.16-0.8-2.12-0.8
				c-0.9,0-1.57,0.27-2.02,0.8c-0.45,0.53-0.74,1.21-0.88,2.02c-0.14,0.82-0.21,1.68-0.21,2.59v22.22c0,0.87,0.06,1.73,0.18,2.56
				c0.12,0.84,0.4,1.52,0.83,2.05C139.25,428.23,139.95,428.5,140.92,428.5z"/>
			<path class="st3" d="M171.45,435.73c-2.9,0-5.18-0.67-6.86-1.99c-1.67-1.33-2.86-3.2-3.57-5.61c-0.71-2.41-1.06-5.19-1.06-8.35
				v-15.5c0-3.27,0.38-6.1,1.14-8.49c0.76-2.39,2.06-4.25,3.91-5.56c1.85-1.31,4.36-1.97,7.53-1.97c3.1,0,5.55,0.57,7.32,1.71
				c1.78,1.14,3.04,2.72,3.8,4.73c0.76,2.01,1.14,4.37,1.14,7.07v2.96h-9.06v-3.76c0-0.99-0.06-1.9-0.18-2.73
				c-0.12-0.84-0.4-1.51-0.83-2.02c-0.43-0.51-1.13-0.77-2.1-0.77c-1,0-1.73,0.29-2.17,0.88c-0.45,0.59-0.73,1.32-0.85,2.19
				c-0.12,0.87-0.18,1.79-0.18,2.73v21.37c0,1.03,0.09,1.98,0.28,2.88c0.19,0.89,0.53,1.61,1.04,2.17c0.5,0.55,1.22,0.83,2.15,0.83
				c0.97,0,1.71-0.28,2.23-0.85c0.52-0.57,0.88-1.31,1.09-2.22c0.21-0.91,0.31-1.88,0.31-2.91v-5.41h-3.78v-5.98h12.11v23.93h-6.11
				l-0.52-3.82c-0.55,1.29-1.36,2.37-2.43,3.22C174.73,435.31,173.28,435.73,171.45,435.73z"/>
			<path class="st3" d="M210.27,435.05v-38.58h-6.31v-7.58h21.89v7.58h-6.26v38.58H210.27z"/>
			<path class="st3" d="M230.81,435.05v-46.16h11.54c2.83,0,5.28,0.34,7.35,1.03c2.07,0.68,3.68,1.91,4.84,3.68
				c1.16,1.77,1.73,4.27,1.73,7.49c0,1.9-0.14,3.59-0.41,5.07c-0.28,1.48-0.79,2.76-1.53,3.85c-0.74,1.08-1.8,1.99-3.18,2.71
				l5.75,22.34h-9.57l-4.61-20.69h-2.64v20.69H230.81z M240.08,408.5h2.59c1.31,0,2.33-0.26,3.05-0.77
				c0.72-0.51,1.23-1.25,1.53-2.22c0.29-0.97,0.44-2.14,0.44-3.51c0-1.97-0.33-3.51-0.98-4.61c-0.66-1.1-1.86-1.65-3.62-1.65h-3
				V408.5z"/>
			<path class="st3" d="M261.14,435.05l7.92-46.16h10.56l7.81,46.16h-8.54l-1.4-9.74h-6.16l-1.45,9.74H261.14z M272.17,419.21h4.45
				l-2.23-18.01L272.17,419.21z"/>
			<path class="st3" d="M293.02,435.05v-46.16h9.26v46.16H293.02z"/>
			<path class="st3" d="M309.84,435.05v-46.16h6.52l8.59,22.22v-22.22h7.66v46.16h-6.26l-8.59-23.93v23.93H309.84z"/>
			<path class="st3" d="M340.22,435.05v-46.16h9.26v46.16H340.22z"/>
			<path class="st3" d="M357.04,435.05v-46.16h6.52l8.59,22.22v-22.22h7.66v46.16h-6.26l-8.59-23.93v23.93H357.04z"/>
			<path class="st3" d="M398.29,435.73c-2.9,0-5.18-0.67-6.86-1.99c-1.67-1.33-2.86-3.2-3.57-5.61c-0.71-2.41-1.06-5.19-1.06-8.35
				v-15.5c0-3.27,0.38-6.1,1.14-8.49c0.76-2.39,2.06-4.25,3.91-5.56c1.85-1.31,4.36-1.97,7.53-1.97c3.1,0,5.55,0.57,7.32,1.71
				c1.78,1.14,3.04,2.72,3.8,4.73c0.76,2.01,1.14,4.37,1.14,7.07v2.96h-9.06v-3.76c0-0.99-0.06-1.9-0.18-2.73
				c-0.12-0.84-0.4-1.51-0.83-2.02c-0.43-0.51-1.13-0.77-2.1-0.77c-1,0-1.73,0.29-2.17,0.88c-0.45,0.59-0.73,1.32-0.85,2.19
				c-0.12,0.87-0.18,1.79-0.18,2.73v21.37c0,1.03,0.09,1.98,0.28,2.88c0.19,0.89,0.53,1.61,1.04,2.17c0.5,0.55,1.22,0.83,2.15,0.83
				c0.97,0,1.71-0.28,2.23-0.85c0.52-0.57,0.88-1.31,1.09-2.22c0.21-0.91,0.31-1.88,0.31-2.91v-5.41h-3.78v-5.98h12.11v23.93h-6.11
				l-0.52-3.82c-0.55,1.29-1.36,2.37-2.43,3.22C401.57,435.31,400.12,435.73,398.29,435.73z"/>
		</g>
	</g>
	<path id="DOG" class="st1" d="M366.86,255.47c0-0.17-0.02-0.34,0-0.5c1.19-7.49-3.16-13.04-6.68-18.84
		c-1.58-2.61-4.51-4.16-7.04-4.7c-4.34-0.93-7.24-3.86-10.57-6.08c-6.79-4.52-12.17-10.75-17.69-16.68
		c-3.21-3.45-5.64-7.65-8.26-11.62c-1.95-2.96-4.83-4.99-7.12-7.6c-0.8-0.91-0.96,0.29-1.41,0.5c-3.23,1.52-6.45,3.03-9.64,4.62
		c-6.03,2.99-12.37,5.06-18.93,6.47c-1.71,2.05-4.33,0.34-6.39,1.61c-1.86,1.14-4.27-0.01-6.34,0.45
		c-5.85,1.28-12.01,1.12-17.61,3.58c-0.45,0.2-0.87,0.46-1.35,0.39c-4.64-0.76-9.06,1.57-13.65,0.98c-2.12-0.27-2.23,0.77-2.05,2.31
		c0.57,4.95-1.76,9.7-1,14.66c-1.58,2.38-1.17,5.1-0.9,7.61c0.2,1.83-0.85,3.11-1.24,4.59c-1.43,5.4-3.18,10.66-2.93,16.38
		c0.16,3.69-1.55,7.11-3.11,10.23c-2.38,4.75-4.32,9.61-5.9,14.66c-0.68,2.18-2.05,4.11-4.5,3.93c-5.3-0.4-10.37,1.46-15.68,1.21
		c-2.89-0.14-4.84-2.32-7.63-2.42c-0.7-0.02-0.57-1.74-0.23-2.21c0.8-1.11,1.88-2.31,1.31-3.5c-0.9-1.91-2.98-1.03-4.52-0.98
		c-2.18,0.06-4.14-0.33-5.91-1.56c-1.19-0.82-1.56-2.33-0.61-3.38c1.22-1.33,1.82-2.92,2.63-4.46c1.3-2.48,4.06-2.84,6.36-3.68
		c2.39-0.87,4.88-1.34,6.63-3.48c0.66-0.81,1.11-1.47,1.08-2.6c-0.1-3.01,0.31-6.08-0.1-9.04c-1.01-7.2-1.29-14.65-4.07-21.42
		c-2.88-7.01-5.65-14.1-9.32-20.77c-0.73-1.33-1.37-2.73-1.78-4.31c-0.49-1.88-1.78-3.63-3.66-4.83
		c-6.03-3.85-9.57-9.76-12.15-16.14c-0.91-2.24-1.41-4.92-2.37-7.05c-1.03-2.29,0.03-4.79-1.65-6.91c-0.73-0.92,0.48-3.42-0.26-4.31
		c-1.06-1.27-1.04-2.77-1.39-3.98c-1.11-3.89-3.27-7.1-5.5-10.31c-2.2-3.17-4.56-6.21-6.99-9.21c-1.64-2.02-3.16-4.15-5.1-5.87
		c-2.41-2.14-4.91-4.22-8.58-3.57c-1.7,0.3-3.29-0.76-5.24-0.12c-1.96,0.65-4.31,0.14-6.48,0.14c-2.01,0-4.02-0.02-6.03,0
		c-2.95,0.02-5.4-1.1-8.04-2.48c-3.27-1.72-5.81-4.05-8.31-6.57c-2.27-2.29-2.14-3.72,0.14-6.22c2.87-3.13,6.78-4.65,10.26-6.82
		c2.78-1.73,6.12-2.46,8.54-4.88c1.11-1.11,2.01-2.18,1.65-3.85c-0.48-2.24,0.84-3.59,2.19-5.14c3.35-3.86,7.99-6.01,11.84-9.19
		c0.75-0.61,1.08-0.98,1.04-1.78c-0.06-0.79,0-1.51-0.41-2.34c-2.13-4.34-2.34-9.34-4.56-13.69c-0.46-0.9,0.27-1.47,1.35-1.41
		c0.68,0.03,1.29,0.04,1.75,0.65c1.58,2.05,3.81,3.45,5.1,5.92c1.03,1.98,3.15,3.42,4.86,5.03c0.93,0.88,0.69-0.2,1-0.61
		c1.62-2.23,1.51-5.03,0.77-7.07c-0.78-2.15-0.66-4.13-0.76-6.2c-0.05-0.9-0.54-2.05,0.56-2.7c0.87-0.51,3.54,0.13,4.01,1.12
		c1.35,2.94,3.61,5.22,5.43,7.8c2.79,3.94,5.37,8.12,9.84,10.38c3.54,1.78,5.72,5.14,9.04,7.24c4.58,2.88,8.79,6.36,13.11,9.64
		c3.56,2.72,7.28,5.19,10.84,7.92c4.95,3.78,9.48,7.96,14.1,12.09c2.75,2.45,5.92,4.68,9.46,6.14c1.18,0.49,2.29,0.86,3.6,1.08
		c5.3,0.89,10.67,1.25,15.94,2.64c2.51,0.66,5.25,1.35,8.04,1.39c2.7,0.02,5.34,0.92,8.12,1.04c2.7,0.12,5-1.29,7.63-1.15
		c2.51,0.13,5.24,0.66,7.49-0.11c3.76-1.3,7.48-0.83,11.19-0.76c2.35,0.04,4.25-1.38,6.63-1.19c2.2,0.18,4.54,0.62,6.66-0.86
		c0.56-0.39,1.63-0.06,2.47-0.06c4.19,0,8.39,0.25,12.56-0.07c4.65-0.36,9.14,0.61,13.64,1.19c4.16,0.53,8.27,1.57,12.37,2.78
		c8.74,2.59,13.95,5.13,21.33,10.49c4.24,3.07,8.12,6.44,11.94,10c6.67,6.22,11.23,13.8,15.28,21.84
		c3.91,7.77,8.39,15.16,15.22,20.86c1.66,1.39,3.54,1.89,5.5,2.53c3.59,1.16,6.94,3.11,10.91,2.77c5.17,2.21,11.12,1.67,16.09,4.88
		c3.42,2.21,6.07,4.55,6.59,8.82c0.18,1.51,0.8,3.02,1.52,4.37c0.52,0.98,0.76,2.02,0.15,2.69c-0.64,0.69-1.76,0.58-2.67-0.07
		c-0.37-0.27-0.84-0.37-1.26-0.59c-1.66-0.87-3.15-1.9-5.19-2.11c-1.96-0.21-3.48,0.82-5.08,1.27c-7.57,2.1-9.61,1.85-17.41,1.04
		c-5.94-0.61-11.29-2.75-16.93-4.12c-1-0.24-1.69-0.84-2.54-1.19c-1.85-0.74-3.66-1.47-5.65-1.71c-0.43,1.83-1.18,3.66-1.23,5.5
		c-0.12,3.84-0.61,7.73,1.86,11.29c0.96,1.38,2.01,2.6,3.2,3.66c3.65,3.24,5.04,7.31,4.94,12.05c-0.03,1.51,0.14,3.03-0.03,4.52
		c-0.64,5.3,1.37,10.4,1.04,15.67c1.33,2.05,0.95,4.37,1.01,6.62c0.06,2.43,0.06,4.82-1.54,6.91c-0.98,1.28-0.39,2.87-0.46,4.32
		c-0.14,2.81-0.21,2.56-2.72,3.74c-1.9,0.9-3.74,0.9-5.65,0.92c-3.02,0.02-6.04,0.1-9.05-0.02c-2.51-0.1-3.58-1.28-3.7-3.69
		c-0.12-2.29-0.12-2.3-2.5-2.32c-3.19-0.02-6.36,0.03-9.55-0.02c-2.29-0.04-3.15-1.11-3.05-3.37c0.1-2.11,1.49-3.17,3.05-4.2
		c1.21-0.8,2.69-0.52,3.99-1.36c1.23-0.8,1.69-1.52,2.12-2.89C367,262.27,366.83,258.88,366.86,255.47z"/>
</g>
<g id="logo-naranja">
	<circle class="st2" cx="256" cy="-301.36" r="256"/>
	<g>
		<path class="st1" d="M123.37-173.53c-5.67,0-10.41-1.03-14.21-3.1c-3.81-2.07-6.68-5.26-8.62-9.58
			c-1.94-4.32-3.02-9.93-3.25-16.81l17.13-2.64c0.07,3.98,0.43,7.19,1.06,9.64c0.63,2.45,1.53,4.21,2.69,5.28
			c1.16,1.07,2.56,1.61,4.2,1.61c2.09,0,3.45-0.73,4.09-2.18c0.63-1.45,0.95-2.98,0.95-4.59c0-3.82-0.9-7.06-2.69-9.7
			c-1.79-2.64-4.22-5.3-7.28-7.97l-7.83-7c-3.43-2.98-6.32-6.37-8.67-10.16c-2.35-3.79-3.53-8.47-3.53-14.06
			c0-7.88,2.28-13.9,6.83-18.07c4.55-4.17,10.75-6.25,18.58-6.25c4.85,0,8.75,0.84,11.7,2.52c2.95,1.68,5.19,3.88,6.72,6.6
			c1.53,2.72,2.57,5.58,3.13,8.61c0.56,3.02,0.88,5.91,0.95,8.66l-17.24,2.18c-0.08-2.75-0.24-5.14-0.5-7.17
			c-0.26-2.03-0.8-3.59-1.62-4.71c-0.82-1.11-2.09-1.66-3.81-1.66c-1.87,0-3.23,0.8-4.09,2.41c-0.86,1.61-1.29,3.21-1.29,4.82
			c0,3.44,0.8,6.25,2.41,8.43c1.6,2.18,3.71,4.46,6.32,6.83l7.5,6.77c3.95,3.44,7.29,7.34,10.02,11.7
			c2.72,4.36,4.09,9.75,4.09,16.18c0,4.36-0.97,8.32-2.91,11.88c-1.94,3.56-4.68,6.37-8.23,8.43
			C132.42-174.57,128.22-173.53,123.37-173.53z"/>
		<path class="st1" d="M160.75-174.91v-92.95h20.04v92.95H160.75z"/>
		<path class="st1" d="M198.12-174.91v-92.95h20.04v79.06h20.82v13.88H198.12z"/>
		<path class="st1" d="M257.87-174.91l-16.34-92.95h17.13l9.74,63.11l9.07-63.11h18.13l-16.57,92.95H257.87z"/>
		<path class="st1" d="M307.45-174.91v-92.95h40.74v14h-20.71v23.06h15.78v14.23h-15.78v27.77h20.93v13.88H307.45z"/>
		<path class="st1" d="M361.04-174.91v-92.95h22.41c5.49,0,10.25,0.69,14.27,2.07c4.02,1.38,7.15,3.84,9.4,7.4
			c2.24,3.56,3.37,8.59,3.37,15.09c0,3.83-0.27,7.23-0.8,10.21c-0.54,2.98-1.52,5.56-2.96,7.75c-1.44,2.18-3.5,4-6.18,5.45
			l11.15,44.98H393.1l-8.94-41.65h-5.13v41.65H361.04z M379.03-228.38h5.02c2.55,0,4.52-0.52,5.93-1.55
			c1.41-1.03,2.39-2.52,2.96-4.48c0.57-1.95,0.85-4.3,0.85-7.06c0-3.98-0.64-7.08-1.91-9.29c-1.27-2.22-3.62-3.33-7.03-3.33h-5.83
			V-228.38z"/>
	</g>
	<g>
		<path class="st4" d="M97.29-122.31v-46.16h10.61c3.66,0,6.5,0.5,8.54,1.51c2.04,1.01,3.47,2.58,4.3,4.73
			c0.83,2.15,1.24,4.93,1.24,8.35v16.75c0,3.46-0.41,6.28-1.24,8.46c-0.83,2.18-2.25,3.79-4.27,4.81c-2.02,1.03-4.84,1.54-8.46,1.54
			H97.29z M106.55-129.37H108c1.41,0,2.43-0.23,3.05-0.68c0.62-0.46,1.01-1.14,1.16-2.05s0.23-2.05,0.23-3.42v-20.12
			c0-1.37-0.1-2.47-0.28-3.3c-0.19-0.84-0.6-1.44-1.22-1.82c-0.62-0.38-1.62-0.57-3-0.57h-1.4V-129.37z"/>
		<path class="st4" d="M140.92-121.62c-3.14,0-5.62-0.61-7.45-1.82c-1.83-1.22-3.14-2.96-3.93-5.24c-0.79-2.28-1.19-4.99-1.19-8.15
			v-17.15c0-3.19,0.4-5.91,1.19-8.15c0.79-2.24,2.1-3.96,3.93-5.16c1.83-1.2,4.31-1.8,7.45-1.8c3.17,0,5.68,0.6,7.53,1.8
			c1.85,1.2,3.17,2.92,3.96,5.16c0.79,2.24,1.19,4.96,1.19,8.15v17.15c0,3.15-0.4,5.87-1.19,8.15c-0.79,2.28-2.11,4.03-3.96,5.24
			C146.6-122.23,144.09-121.62,140.92-121.62z M140.92-128.86c0.97,0,1.67-0.26,2.12-0.8c0.45-0.53,0.74-1.22,0.88-2.05
			c0.14-0.84,0.21-1.69,0.21-2.56v-22.22c0-0.91-0.07-1.78-0.21-2.59c-0.14-0.82-0.43-1.49-0.88-2.02c-0.45-0.53-1.16-0.8-2.12-0.8
			c-0.9,0-1.57,0.27-2.02,0.8c-0.45,0.53-0.74,1.21-0.88,2.02c-0.14,0.82-0.21,1.68-0.21,2.59v22.22c0,0.87,0.06,1.73,0.18,2.56
			c0.12,0.84,0.4,1.52,0.83,2.05C139.25-129.12,139.95-128.86,140.92-128.86z"/>
		<path class="st4" d="M171.45-121.62c-2.9,0-5.18-0.67-6.86-1.99c-1.67-1.33-2.86-3.2-3.57-5.61c-0.71-2.41-1.06-5.19-1.06-8.35
			v-15.5c0-3.27,0.38-6.1,1.14-8.49c0.76-2.39,2.06-4.25,3.91-5.56c1.85-1.31,4.36-1.97,7.53-1.97c3.1,0,5.55,0.57,7.32,1.71
			c1.78,1.14,3.04,2.72,3.8,4.73c0.76,2.01,1.14,4.37,1.14,7.07v2.96h-9.06v-3.76c0-0.99-0.06-1.9-0.18-2.73
			c-0.12-0.84-0.4-1.51-0.83-2.02c-0.43-0.51-1.13-0.77-2.1-0.77c-1,0-1.73,0.29-2.17,0.88c-0.45,0.59-0.73,1.32-0.85,2.19
			c-0.12,0.87-0.18,1.79-0.18,2.73v21.37c0,1.03,0.09,1.98,0.28,2.88c0.19,0.89,0.53,1.61,1.04,2.17c0.5,0.55,1.22,0.83,2.15,0.83
			c0.97,0,1.71-0.28,2.23-0.85c0.52-0.57,0.88-1.31,1.09-2.22s0.31-1.88,0.31-2.91v-5.41h-3.78v-5.98h12.11v23.93h-6.11l-0.52-3.82
			c-0.55,1.29-1.36,2.37-2.43,3.22C174.73-122.05,173.28-121.62,171.45-121.62z"/>
		<path class="st4" d="M210.27-122.31v-38.58h-6.31v-7.58h21.89v7.58h-6.26v38.58H210.27z"/>
		<path class="st4" d="M230.81-122.31v-46.16h11.54c2.83,0,5.28,0.34,7.35,1.03c2.07,0.68,3.68,1.91,4.84,3.68
			c1.16,1.77,1.73,4.27,1.73,7.49c0,1.9-0.14,3.59-0.41,5.07c-0.28,1.48-0.79,2.76-1.53,3.85c-0.74,1.08-1.8,1.99-3.18,2.71
			l5.75,22.34h-9.57l-4.61-20.69h-2.64v20.69H230.81z M240.08-148.86h2.59c1.31,0,2.33-0.26,3.05-0.77s1.23-1.25,1.53-2.22
			c0.29-0.97,0.44-2.14,0.44-3.51c0-1.97-0.33-3.51-0.98-4.61c-0.66-1.1-1.86-1.65-3.62-1.65h-3V-148.86z"/>
		<path class="st4" d="M261.14-122.31l7.92-46.16h10.56l7.81,46.16h-8.54l-1.4-9.74h-6.16l-1.45,9.74H261.14z M272.17-138.15h4.45
			l-2.23-18.01L272.17-138.15z"/>
		<path class="st4" d="M293.02-122.31v-46.16h9.26v46.16H293.02z"/>
		<path class="st4" d="M309.84-122.31v-46.16h6.52l8.59,22.22v-22.22h7.66v46.16h-6.26l-8.59-23.93v23.93H309.84z"/>
		<path class="st4" d="M340.22-122.31v-46.16h9.26v46.16H340.22z"/>
		<path class="st4" d="M357.04-122.31v-46.16h6.52l8.59,22.22v-22.22h7.66v46.16h-6.26l-8.59-23.93v23.93H357.04z"/>
		<path class="st4" d="M398.29-121.62c-2.9,0-5.18-0.67-6.86-1.99c-1.67-1.33-2.86-3.2-3.57-5.61c-0.71-2.41-1.06-5.19-1.06-8.35
			v-15.5c0-3.27,0.38-6.1,1.14-8.49c0.76-2.39,2.06-4.25,3.91-5.56c1.85-1.31,4.36-1.97,7.53-1.97c3.1,0,5.55,0.57,7.32,1.71
			c1.78,1.14,3.04,2.72,3.8,4.73c0.76,2.01,1.14,4.37,1.14,7.07v2.96h-9.06v-3.76c0-0.99-0.06-1.9-0.18-2.73
			c-0.12-0.84-0.4-1.51-0.83-2.02c-0.43-0.51-1.13-0.77-2.1-0.77c-1,0-1.73,0.29-2.17,0.88c-0.45,0.59-0.73,1.32-0.85,2.19
			c-0.12,0.87-0.18,1.79-0.18,2.73v21.37c0,1.03,0.09,1.98,0.28,2.88c0.19,0.89,0.53,1.61,1.04,2.17c0.5,0.55,1.22,0.83,2.15,0.83
			c0.97,0,1.71-0.28,2.23-0.85c0.52-0.57,0.88-1.31,1.09-2.22s0.31-1.88,0.31-2.91v-5.41h-3.78v-5.98h12.11v23.93h-6.11l-0.52-3.82
			c-0.55,1.29-1.36,2.37-2.43,3.22C401.57-122.05,400.12-121.62,398.29-121.62z"/>
	</g>
	<path id="DOG_1_" class="st1" d="M366.86-301.89c0-0.17-0.02-0.34,0-0.5c1.19-7.49-3.16-13.04-6.68-18.84
		c-1.58-2.61-4.51-4.16-7.04-4.7c-4.34-0.93-7.24-3.86-10.57-6.08c-6.79-4.52-12.17-10.75-17.69-16.68
		c-3.21-3.45-5.64-7.65-8.26-11.62c-1.95-2.96-4.83-4.99-7.12-7.6c-0.8-0.91-0.96,0.29-1.41,0.5c-3.23,1.52-6.45,3.03-9.64,4.62
		c-6.03,2.99-12.37,5.06-18.93,6.47c-1.71,2.05-4.33,0.34-6.39,1.61c-1.86,1.14-4.27-0.01-6.34,0.45
		c-5.85,1.28-12.01,1.12-17.61,3.58c-0.45,0.2-0.87,0.46-1.35,0.39c-4.64-0.76-9.06,1.57-13.65,0.98c-2.12-0.27-2.23,0.77-2.05,2.31
		c0.57,4.95-1.76,9.7-1,14.66c-1.58,2.38-1.17,5.1-0.9,7.61c0.2,1.83-0.85,3.11-1.24,4.59c-1.43,5.4-3.18,10.66-2.93,16.38
		c0.16,3.69-1.55,7.11-3.11,10.23c-2.38,4.75-4.32,9.61-5.9,14.66c-0.68,2.18-2.05,4.11-4.5,3.93c-5.3-0.4-10.37,1.46-15.68,1.21
		c-2.89-0.14-4.84-2.32-7.63-2.42c-0.7-0.02-0.57-1.74-0.23-2.21c0.8-1.11,1.88-2.31,1.31-3.5c-0.9-1.91-2.98-1.03-4.52-0.98
		c-2.18,0.06-4.14-0.33-5.91-1.56c-1.19-0.82-1.56-2.33-0.61-3.38c1.22-1.33,1.82-2.92,2.63-4.46c1.3-2.48,4.06-2.84,6.36-3.68
		c2.39-0.87,4.88-1.34,6.63-3.48c0.66-0.81,1.11-1.47,1.08-2.6c-0.1-3.01,0.31-6.08-0.1-9.04c-1.01-7.2-1.29-14.65-4.07-21.42
		c-2.88-7.01-5.65-14.1-9.32-20.77c-0.73-1.33-1.37-2.73-1.78-4.31c-0.49-1.88-1.78-3.63-3.66-4.83
		c-6.03-3.85-9.57-9.76-12.15-16.14c-0.91-2.24-1.41-4.92-2.37-7.05c-1.03-2.29,0.03-4.79-1.65-6.91c-0.73-0.92,0.48-3.42-0.26-4.31
		c-1.06-1.27-1.04-2.77-1.39-3.98c-1.11-3.89-3.27-7.1-5.5-10.31c-2.2-3.17-4.56-6.21-6.99-9.21c-1.64-2.02-3.16-4.15-5.1-5.87
		c-2.41-2.14-4.91-4.22-8.58-3.57c-1.7,0.3-3.29-0.76-5.24-0.12c-1.96,0.65-4.31,0.14-6.48,0.14c-2.01,0-4.02-0.02-6.03,0
		c-2.95,0.02-5.4-1.1-8.04-2.48c-3.27-1.72-5.81-4.05-8.31-6.57c-2.27-2.29-2.14-3.72,0.14-6.22c2.87-3.13,6.78-4.65,10.26-6.82
		c2.78-1.73,6.12-2.46,8.54-4.88c1.11-1.11,2.01-2.18,1.65-3.85c-0.48-2.24,0.84-3.59,2.19-5.14c3.35-3.86,7.99-6.01,11.84-9.19
		c0.75-0.61,1.08-0.98,1.04-1.78c-0.06-0.79,0-1.51-0.41-2.34c-2.13-4.34-2.34-9.34-4.56-13.69c-0.46-0.9,0.27-1.47,1.35-1.41
		c0.68,0.03,1.29,0.04,1.75,0.65c1.58,2.05,3.81,3.45,5.1,5.92c1.03,1.98,3.15,3.42,4.86,5.03c0.93,0.88,0.69-0.2,1-0.61
		c1.62-2.23,1.51-5.03,0.77-7.07c-0.78-2.15-0.66-4.13-0.76-6.2c-0.05-0.9-0.54-2.05,0.56-2.7c0.87-0.51,3.54,0.13,4.01,1.12
		c1.35,2.94,3.61,5.22,5.43,7.8c2.79,3.94,5.37,8.12,9.84,10.38c3.54,1.78,5.72,5.14,9.04,7.24c4.58,2.88,8.79,6.36,13.11,9.64
		c3.56,2.72,7.28,5.19,10.84,7.92c4.95,3.78,9.48,7.96,14.1,12.09c2.75,2.45,5.92,4.68,9.46,6.14c1.18,0.49,2.29,0.86,3.6,1.08
		c5.3,0.89,10.67,1.25,15.94,2.64c2.51,0.66,5.25,1.35,8.04,1.39c2.7,0.02,5.34,0.92,8.12,1.04c2.7,0.12,5-1.29,7.63-1.15
		c2.51,0.13,5.24,0.66,7.49-0.11c3.76-1.3,7.48-0.83,11.19-0.76c2.35,0.04,4.25-1.38,6.63-1.19c2.2,0.18,4.54,0.62,6.66-0.86
		c0.56-0.39,1.63-0.06,2.47-0.06c4.19,0,8.39,0.25,12.56-0.07c4.65-0.36,9.14,0.61,13.64,1.19c4.16,0.53,8.27,1.57,12.37,2.78
		c8.74,2.59,13.95,5.13,21.33,10.49c4.24,3.07,8.12,6.44,11.94,10c6.67,6.22,11.23,13.8,15.28,21.84
		c3.91,7.77,8.39,15.16,15.22,20.86c1.66,1.39,3.54,1.89,5.5,2.53c3.59,1.16,6.94,3.11,10.91,2.77c5.17,2.21,11.12,1.67,16.09,4.88
		c3.42,2.21,6.07,4.55,6.59,8.82c0.18,1.51,0.8,3.02,1.52,4.37c0.52,0.98,0.76,2.02,0.15,2.69c-0.64,0.69-1.76,0.58-2.67-0.07
		c-0.37-0.27-0.84-0.37-1.26-0.59c-1.66-0.87-3.15-1.9-5.19-2.11c-1.96-0.21-3.48,0.82-5.08,1.27c-7.57,2.1-9.61,1.85-17.41,1.04
		c-5.94-0.61-11.29-2.75-16.93-4.12c-1-0.24-1.69-0.84-2.54-1.19c-1.85-0.74-3.66-1.47-5.65-1.71c-0.43,1.83-1.18,3.66-1.23,5.5
		c-0.12,3.84-0.61,7.73,1.86,11.29c0.96,1.38,2.01,2.6,3.2,3.66c3.65,3.24,5.04,7.31,4.94,12.05c-0.03,1.51,0.14,3.03-0.03,4.52
		c-0.64,5.3,1.37,10.4,1.04,15.67c1.33,2.05,0.95,4.37,1.01,6.62c0.06,2.43,0.06,4.82-1.54,6.91c-0.98,1.28-0.39,2.87-0.46,4.32
		c-0.14,2.81-0.21,2.56-2.72,3.74c-1.9,0.9-3.74,0.9-5.65,0.92c-3.02,0.02-6.04,0.1-9.05-0.02c-2.51-0.1-3.58-1.28-3.7-3.69
		c-0.12-2.29-0.12-2.3-2.5-2.32c-3.19-0.02-6.36,0.03-9.55-0.02c-2.29-0.04-3.15-1.11-3.05-3.37c0.1-2.11,1.49-3.17,3.05-4.2
		c1.21-0.8,2.69-0.52,3.99-1.36c1.23-0.8,1.69-1.52,2.12-2.89C367-295.09,366.83-298.48,366.86-301.89z"/>
</g>
</svg>
