<?xml version="1.0" encoding="utf-8"?>
<!-- Generator: Adobe Illustrator 24.2.1, SVG Export Plug-In . SVG Version: 6.00 Build 0)  -->
<svg version="1.1" id="Capa_1" xmlns="http://www.w3.org/2000/svg" xmlns:xlink="http://www.w3.org/1999/xlink" x="0px" y="0px"
	 viewBox="0 0 16 16" style="enable-background:new 0 0 16 16;" xml:space="preserve">
<path d="M12.1,11.56c0-0.01,0-0.01,0-0.02c0.05-0.32-0.13-0.55-0.28-0.79c-0.07-0.11-0.19-0.17-0.3-0.2
	c-0.18-0.04-0.3-0.16-0.44-0.26c-0.29-0.19-0.51-0.45-0.74-0.7C10.2,9.44,10.1,9.27,9.99,9.1c-0.08-0.12-0.2-0.21-0.3-0.32
	C9.66,8.74,9.65,8.79,9.63,8.8C9.5,8.86,9.36,8.93,9.23,9c-0.25,0.13-0.52,0.21-0.8,0.27C8.36,9.35,8.25,9.28,8.16,9.34
	c-0.08,0.05-0.18,0-0.27,0.02C7.65,9.41,7.39,9.4,7.15,9.5C7.14,9.51,7.12,9.52,7.1,9.52C6.9,9.49,6.72,9.59,6.52,9.56
	c-0.09-0.01-0.09,0.03-0.09,0.1c0.02,0.21-0.07,0.41-0.04,0.62c-0.07,0.1-0.05,0.21-0.04,0.32c0.01,0.08-0.04,0.13-0.05,0.19
	c-0.06,0.23-0.13,0.45-0.12,0.69c0.01,0.16-0.07,0.3-0.13,0.43c-0.1,0.2-0.18,0.4-0.25,0.62c-0.03,0.09-0.09,0.17-0.19,0.17
	c-0.22-0.02-0.44,0.06-0.66,0.05c-0.12-0.01-0.2-0.1-0.32-0.1c-0.03,0-0.02-0.07-0.01-0.09c0.03-0.05,0.08-0.1,0.06-0.15
	c-0.04-0.08-0.13-0.04-0.19-0.04c-0.09,0-0.17-0.01-0.25-0.07c-0.05-0.03-0.07-0.1-0.03-0.14c0.05-0.06,0.08-0.12,0.11-0.19
	c0.05-0.1,0.17-0.12,0.27-0.15c0.1-0.04,0.21-0.06,0.28-0.15c0.03-0.03,0.05-0.06,0.05-0.11c0-0.13,0.01-0.26,0-0.38
	c-0.04-0.3-0.05-0.62-0.17-0.9C4.62,9.98,4.5,9.68,4.35,9.4C4.32,9.34,4.29,9.28,4.27,9.22C4.25,9.14,4.2,9.06,4.12,9.01
	C3.87,8.85,3.72,8.6,3.61,8.33c-0.04-0.09-0.06-0.21-0.1-0.3c-0.04-0.1,0-0.2-0.07-0.29C3.41,7.71,3.46,7.6,3.43,7.57
	C3.39,7.51,3.39,7.45,3.37,7.4C3.32,7.24,3.23,7.1,3.14,6.97C3.05,6.83,2.95,6.7,2.85,6.58C2.78,6.49,2.71,6.4,2.63,6.33
	c-0.1-0.09-0.21-0.18-0.36-0.15C2.2,6.19,2.13,6.15,2.05,6.18C1.97,6.2,1.87,6.18,1.78,6.18c-0.08,0-0.17,0-0.25,0
	c-0.12,0-0.23-0.05-0.34-0.1C1.05,6.01,0.94,5.91,0.84,5.8c-0.1-0.1-0.09-0.16,0.01-0.26c0.12-0.13,0.28-0.2,0.43-0.29
	c0.12-0.07,0.26-0.1,0.36-0.21C1.68,5,1.72,4.96,1.7,4.89C1.68,4.79,1.74,4.74,1.79,4.67c0.14-0.16,0.34-0.25,0.5-0.39
	c0.03-0.03,0.05-0.04,0.04-0.07c0-0.03,0-0.06-0.02-0.1c-0.09-0.18-0.1-0.39-0.19-0.58C2.11,3.5,2.14,3.47,2.18,3.48
	c0.03,0,0.05,0,0.07,0.03c0.07,0.09,0.16,0.14,0.21,0.25C2.52,3.84,2.6,3.9,2.68,3.96C2.72,4,2.71,3.96,2.72,3.94
	c0.07-0.09,0.06-0.21,0.03-0.3C2.72,3.55,2.72,3.47,2.72,3.38c0-0.04-0.02-0.09,0.02-0.11c0.04-0.02,0.15,0.01,0.17,0.05
	c0.06,0.12,0.15,0.22,0.23,0.33c0.12,0.17,0.23,0.34,0.41,0.44c0.15,0.08,0.24,0.22,0.38,0.3C4.13,4.5,4.3,4.65,4.48,4.79
	C4.63,4.9,4.79,5.01,4.94,5.12c0.21,0.16,0.4,0.33,0.59,0.51c0.12,0.1,0.25,0.2,0.4,0.26c0.05,0.02,0.1,0.04,0.15,0.05
	c0.22,0.04,0.45,0.05,0.67,0.11C6.86,6.07,6.97,6.1,7.09,6.1c0.11,0,0.22,0.04,0.34,0.04C7.55,6.15,7.64,6.09,7.75,6.1
	c0.11,0.01,0.22,0.03,0.31,0c0.16-0.05,0.31-0.03,0.47-0.03c0.1,0,0.18-0.06,0.28-0.05C8.91,6.02,9.01,6.04,9.1,5.97
	c0.02-0.02,0.07,0,0.1,0c0.18,0,0.35,0.01,0.53,0c0.2-0.02,0.38,0.03,0.57,0.05c0.17,0.02,0.35,0.07,0.52,0.12
	c0.37,0.11,0.59,0.22,0.9,0.44c0.18,0.13,0.34,0.27,0.5,0.42c0.28,0.26,0.47,0.58,0.64,0.92c0.16,0.33,0.35,0.64,0.64,0.88
	c0.07,0.06,0.15,0.08,0.23,0.11c0.15,0.05,0.29,0.13,0.46,0.12c0.22,0.09,0.47,0.07,0.68,0.21c0.14,0.09,0.26,0.19,0.28,0.37
	c0.01,0.06,0.03,0.13,0.06,0.18c0.02,0.04,0.03,0.09,0.01,0.11c-0.03,0.03-0.07,0.02-0.11,0c-0.02-0.01-0.04-0.02-0.05-0.02
	c-0.07-0.04-0.13-0.08-0.22-0.09c-0.08-0.01-0.15,0.03-0.21,0.05c-0.32,0.09-0.4,0.08-0.73,0.04c-0.25-0.03-0.47-0.12-0.71-0.17
	c-0.04-0.01-0.07-0.04-0.11-0.05c-0.08-0.03-0.15-0.06-0.24-0.07c-0.02,0.08-0.05,0.15-0.05,0.23c-0.01,0.16-0.03,0.33,0.08,0.47
	c0.04,0.06,0.08,0.11,0.13,0.15c0.15,0.14,0.21,0.31,0.21,0.51c0,0.06,0.01,0.13,0,0.19c-0.03,0.22,0.06,0.44,0.04,0.66
	c0.06,0.09,0.04,0.18,0.04,0.28c0,0.1,0,0.2-0.06,0.29c-0.04,0.05-0.02,0.12-0.02,0.18c-0.01,0.12-0.01,0.11-0.11,0.16
	c-0.08,0.04-0.16,0.04-0.24,0.04c-0.13,0-0.25,0-0.38,0c-0.11,0-0.15-0.05-0.16-0.16c-0.01-0.1-0.01-0.1-0.11-0.1
	c-0.13,0-0.27,0-0.4,0c-0.1,0-0.13-0.05-0.13-0.14c0-0.09,0.06-0.13,0.13-0.18c0.05-0.03,0.11-0.02,0.17-0.06
	c0.05-0.03,0.07-0.06,0.09-0.12C12.11,11.84,12.1,11.7,12.1,11.56z"/>
</svg>
